ply
format ascii 1.0
comment Created in Blender version 4.4.0
element vertex 559
property float x
property float y
property float z
property float s
property float t
element face 512
property list uchar uint vertex_indices
end_header
2.2351755e-06 17.677671 -17.67767 0.75 0.24999994
0 20.786747 -13.8892565 0.75 0.31250006
4.055294 20.387335 -13.8892565 0.71875 0.31249994
3.4487443 17.338003 -17.67767 0.71875 0.25
0 20.786747 13.8892565 0.75 0.6875
2.2351755e-06 17.677671 17.67767 0.75 0.75000006
3.4487443 17.338003 17.67767 0.71875 0.75000006
4.055294 20.387335 13.8892565 0.71875 0.6875
5.401674e-06 13.889243 -20.78674 0.74999994 0.18749982
2.7096612 13.622383 -20.78674 0.71875 0.1875
1.490117e-06 23.096985 9.567086 0.75 0.6250001
4.5060015 22.653193 9.567086 0.71875 0.62500006
1.6763817e-06 9.567084 -23.096987 0.74999994 0.125
1.8664472 9.383261 -23.096987 0.71875 0.12500006
0 24.51964 4.8772583 0.75 0.5625
4.783546 24.048502 4.8772583 0.71875 0.5625
3.7252926e-07 4.8772545 -24.51963 0.75 0.06249988
0.9515064 4.7835445 -24.51963 0.71875 0.06249994
0 25.00001 0 0.75 0.5
4.877261 24.51964 0 0.71875 0.5
3.7252926e-07 4.8772545 24.51963 0.75 0.9375001
0 0 25 0.734375 1
0.9515064 4.7835445 24.51963 0.71875 0.93750006
0 0 -25 0.734375 0
0 24.51964 -4.8772583 0.75 0.4375
4.783546 24.048502 -4.8772583 0.71875 0.4375
1.6763817e-06 9.567084 23.096987 0.74999994 0.87500006
1.8664472 9.383261 23.096987 0.71875 0.875
1.490117e-06 23.096985 -9.567086 0.75 0.37499994
4.5060015 22.653193 -9.567086 0.71875 0.375
0 13.889261 20.78674 0.75 0.8125
2.7096612 13.622383 20.78674 0.71875 0.8125
3.6611676 8.838839 23.096987 0.6875 0.875
5.3151917 12.832003 20.78674 0.6875 0.8125
8.83884 21.338842 -9.567086 0.6875 0.375
7.9547453 19.204449 -13.8892565 0.6875 0.31249994
6.7649555 16.332043 17.67767 0.6875 0.75000006
6.7649555 16.332043 -17.67767 0.6875 0.25
7.9547453 19.204449 13.8892565 0.6875 0.6875
5.3151917 12.832003 -20.78674 0.6875 0.1875
8.83884 21.338842 9.567086 0.6875 0.625
3.6611676 8.838839 -23.096987 0.6875 0.12500006
9.383263 22.653193 4.8772583 0.6875 0.5625
1.8664469 4.5060005 -24.51963 0.6875 0.06249994
9.567092 23.096994 0 0.6875 0.5
0 0 25 0.703125 1
1.8664469 4.5060005 24.51963 0.6875 0.93750006
0 0 -25 0.703125 0
9.383263 22.653193 -4.8772583 0.6875 0.4375
12.8320055 19.204449 9.567086 0.65625 0.62500006
13.622386 20.387335 4.8772583 0.65625 0.5625
5.3151917 7.9547443 -23.096987 0.65625 0.12500006
2.7096608 4.055293 -24.51963 0.65625 0.06249994
13.889265 20.786745 0 0.65625 0.5
0 0 25 0.671875 1
2.7096608 4.055293 24.51963 0.65625 0.93750006
0 0 -25 0.671875 0
13.622386 20.387335 -4.8772583 0.65625 0.4375
5.3151917 7.9547443 23.096987 0.65625 0.875
12.8320055 19.204449 -9.567086 0.65625 0.375
7.7164617 11.548496 20.78674 0.65625 0.8125
11.548499 17.283546 -13.8892565 0.65625 0.31249994
9.821193 14.69845 17.67767 0.65625 0.75000006
9.821193 14.69845 -17.67767 0.65625 0.25
11.548499 17.283546 13.8892565 0.65625 0.6875
7.7164617 11.548496 -20.78674 0.65625 0.1875
16.332045 16.332043 -9.567086 0.625 0.375
14.698452 14.698447 -13.8892565 0.625 0.31249994
9.821192 9.821189 20.78674 0.625 0.8125
12.500008 12.500005 17.67767 0.625 0.75
12.500008 12.500005 -17.67767 0.625 0.25
14.698452 14.698447 13.8892565 0.625 0.68750006
9.821192 9.821189 -20.78674 0.625 0.1875
16.332045 16.332043 9.567086 0.625 0.62500006
6.7649555 6.764953 -23.096987 0.625 0.125
17.338007 17.338003 4.8772583 0.625 0.5625
3.448744 3.4487429 -24.51963 0.625 0.06249994
17.677681 17.677671 0 0.625 0.5
0 0 25 0.640625 1
3.448744 3.4487429 24.51963 0.625 0.93750006
0 0 -25 0.640625 0
17.338007 17.338003 -4.8772583 0.625 0.4375
6.7649555 6.764953 23.096987 0.625 0.875
7.9547462 5.31519 -23.096987 0.59375 0.125
4.055294 2.7096598 -24.51963 0.59375 0.06249994
20.38734 13.62238 4.8772583 0.59375 0.5625
20.78675 13.889256 0 0.59375 0.5
0 0 25 0.609375 1
4.055294 2.7096598 24.51963 0.59375 0.93750006
0 0 -25 0.609375 0
20.38734 13.62238 -4.8772583 0.59375 0.4375
7.9547462 5.31519 23.096987 0.59375 0.875
19.204453 12.832005 -9.567086 0.59375 0.375
11.5485 7.7164583 20.78674 0.59375 0.8125
17.283552 11.548495 -13.8892565 0.59375 0.31249994
14.698453 9.821191 17.67767 0.59375 0.75000006
14.698453 9.821191 -17.67767 0.59375 0.25
17.283552 11.548495 13.8892565 0.59375 0.6875
11.5485 7.7164583 -20.78674 0.59375 0.1875
19.204453 12.832005 9.567086 0.59375 0.62500006
19.204453 7.9547405 -13.8892565 0.5625 0.31249994
16.332047 6.764954 -17.67767 0.5625 0.25
16.332047 6.764954 17.67767 0.5625 0.75000006
19.204453 7.9547405 13.8892565 0.5625 0.6875
12.8320055 5.3151884 -20.78674 0.5625 0.1875
21.338846 8.838839 9.567086 0.5625 0.62500006
8.83884 3.661166 -23.096987 0.5625 0.125
22.653196 9.383257 4.8772583 0.5625 0.5625
4.5060005 1.866446 -24.51963 0.5625 0.06249994
23.096998 9.567084 0 0.5625 0.5
0 0 25 0.578125 1
4.5060005 1.866446 24.51963 0.5625 0.93750006
0 0 -25 0.578125 0
22.653196 9.383257 -4.8772583 0.5625 0.4375
8.83884 3.661166 23.096987 0.5625 0.875
21.338846 8.838839 -9.567086 0.5625 0.375
12.8320055 5.3151884 20.78674 0.5625 0.8125
0 0 25 0.546875 1
4.7835445 0.9515057 24.51963 0.53125 0.93750006
0 0 -25 0.546875 0
4.7835445 0.9515057 -24.51963 0.53125 0.06249994
24.519642 4.877255 0 0.53125 0.5
24.048506 4.783542 -4.8772583 0.53125 0.4375
9.383262 1.866446 23.096987 0.53125 0.875
22.653196 4.5060015 -9.567086 0.53125 0.375
13.622385 2.7096589 20.78674 0.53125 0.8125
20.387337 4.0552907 -13.8892565 0.53125 0.31249994
17.338007 3.448744 17.67767 0.53125 0.75000006
17.338007 3.448744 -17.67767 0.53125 0.25
20.387337 4.0552907 13.8892565 0.53125 0.68750006
13.622385 2.7096589 -20.78674 0.53125 0.1875
22.653196 4.5060015 9.567086 0.53125 0.62500006
9.383262 1.866446 -23.096987 0.53125 0.125
24.048506 4.783542 4.8772583 0.53125 0.5625
17.67768 3.7252917e-07 17.67767 0.5 0.75000006
20.786749 -2.235175e-06 13.8892565 0.49999997 0.68750006
17.67768 3.7252917e-07 -17.67767 0.5 0.25
13.889261 -1.3038521e-06 -20.78674 0.49999997 0.1875
23.097 1.1175875e-06 9.567086 0.5 0.62500006
9.567091 -5.587938e-07 -23.096987 0.5 0.125
24.519644 -2.235175e-06 4.8772583 0.5 0.5625
4.8772597 -2.793969e-07 -24.51963 0.5 0.06249994
25.000008 -4.0978207e-06 0 0.49999997 0.5
0 0 25 0.515625 1
4.8772597 -2.793969e-07 24.51963 0.5 0.93750006
0 0 -25 0.515625 0
24.519644 -2.235175e-06 -4.8772583 0.5 0.4375
9.567091 -5.587938e-07 23.096987 0.5 0.875
23.097 1.1175875e-06 -9.567086 0.5 0.375
13.889261 -1.3038521e-06 20.78674 0.49999997 0.8125
20.786749 -2.235175e-06 -13.8892565 0.49999997 0.31249994
24.519638 -4.8772626 0 0.46874997 0.5
24.048504 -4.783546 -4.8772583 0.46875 0.4375
4.783544 -0.9515062 24.51963 0.46875 0.93750006
9.383262 -1.866447 23.096987 0.46875 0.875
22.653196 -4.505999 -9.567086 0.46875 0.375
13.622383 -2.7096612 20.78674 0.46875 0.8125
20.387335 -4.055295 -13.8892565 0.46874997 0.31249994
17.338007 -3.4487429 17.67767 0.46875 0.75000006
17.338007 -3.4487429 -17.67767 0.46875 0.25
20.387335 -4.055295 13.8892565 0.46874997 0.68750006
13.622383 -2.7096612 -20.78674 0.46875 0.1875
22.653196 -4.505999 9.567086 0.46875 0.62500006
9.383262 -1.866447 -23.096987 0.46875 0.125
24.048504 -4.783546 4.8772583 0.46875 0.5625
4.783544 -0.9515062 -24.51963 0.46875 0.06249994
0 0 25 0.484375 1
0 0 -25 0.484375 0
16.332045 -6.7649527 -17.67767 0.4375 0.25
12.832003 -5.3151903 -20.78674 0.43749997 0.1875
19.204449 -7.9547443 13.8892565 0.43749997 0.68750006
21.338846 -8.838836 9.567086 0.4375 0.62500006
8.83884 -3.6611667 -23.096987 0.4375 0.125
22.653194 -9.383261 4.8772583 0.4375 0.5625
4.506 -1.8664463 -24.51963 0.4375 0.06249994
23.09699 -9.56709 0 0.43749997 0.5
0 0 25 0.453125 1
4.506 -1.8664463 24.51963 0.4375 0.93750006
0 0 -25 0.453125 0
22.653194 -9.383261 -4.8772583 0.4375 0.4375
8.83884 -3.6611667 23.096987 0.4375 0.875
21.338846 -8.838836 -9.567086 0.4375 0.375
12.832003 -5.3151903 20.78674 0.43749997 0.81250006
19.204449 -7.9547443 -13.8892565 0.43749997 0.31249994
16.332045 -6.7649527 17.67767 0.4375 0.75000006
4.0552926 -2.7096596 24.51963 0.40625 0.93750006
7.954745 -5.31519 23.096987 0.40625 0.875
20.387335 -13.622381 -4.8772583 0.40625 0.4375
19.204453 -12.832002 -9.567086 0.40625 0.375
11.548496 -7.716459 20.78674 0.40625 0.81250006
17.283546 -11.548496 -13.8892565 0.40625 0.31249994
14.698452 -9.821189 17.67767 0.40625 0.75000006
14.698452 -9.821189 -17.67767 0.40625 0.25
17.283546 -11.548496 13.8892565 0.40625 0.68750006
11.548496 -7.716459 -20.78674 0.40625 0.1875
19.204453 -12.832002 9.567086 0.40625 0.62500006
7.954745 -5.31519 -23.096987 0.40625 0.125
20.387335 -13.622381 4.8772583 0.40625 0.5625
4.0552926 -2.7096596 -24.51963 0.40625 0.06249994
20.786741 -13.88926 0 0.40624997 0.5
0 0 25 0.421875 1
0 0 -25 0.421875 0
14.698447 -14.698447 13.8892565 0.375 0.68750006
16.332045 -16.332039 9.567086 0.375 0.62500006
9.821188 -9.821189 -20.78674 0.37499997 0.1875
6.764953 -6.764953 -23.096987 0.375 0.125
17.338003 -17.338003 4.8772583 0.375 0.5625
3.4487424 -3.4487422 -24.51963 0.375 0.06249994
17.677666 -17.677673 0 0.37499994 0.5
0 0 25 0.390625 1
3.4487424 -3.4487422 24.51963 0.375 0.93750006
0 0 -25 0.390625 0
17.338003 -17.338003 -4.8772583 0.375 0.4375
6.764953 -6.764953 23.096987 0.375 0.875
16.332045 -16.332039 -9.567086 0.375 0.375
9.821188 -9.821189 20.78674 0.37499997 0.81250006
14.698447 -14.698447 -13.8892565 0.375 0.31249994
12.500006 -12.500003 17.67767 0.375 0.75000006
12.500006 -12.500003 -17.67767 0.375 0.25
13.62238 -20.387333 -4.8772583 0.34375 0.4375
12.8320055 -19.204447 -9.567086 0.34375 0.375
5.3151894 -7.9547434 23.096987 0.34375 0.875
7.716457 -11.548496 20.78674 0.34375 0.81250006
11.548495 -17.283545 -13.8892565 0.34375 0.31249994
9.821192 -14.698448 17.67767 0.34375 0.75000006
9.821192 -14.698448 -17.67767 0.34375 0.25
11.548495 -17.283545 13.8892565 0.34375 0.68750006
7.716457 -11.548496 -20.78674 0.34375 0.1875
12.8320055 -19.204447 9.567086 0.34375 0.62500006
5.3151894 -7.9547434 -23.096987 0.34375 0.125
13.62238 -20.387333 4.8772583 0.34375 0.5625
2.7096596 -4.0552917 -24.51963 0.34375 0.06249994
13.889251 -20.786741 0 0.34374994 0.5
0 0 25 0.359375 1
2.7096596 -4.0552917 24.51963 0.34375 0.93750006
0 0 -25 0.359375 0
5.315187 -12.832 -20.78674 0.3125 0.1875
3.6611655 -8.838837 -23.096987 0.3125 0.125
8.83884 -21.338837 9.567086 0.3125 0.62500006
9.383257 -22.653189 4.8772583 0.3125 0.5625
1.8664457 -4.505998 -24.51963 0.3125 0.06249994
9.56708 -23.096987 0 0.31249997 0.5
0 0 25 0.328125 1
1.8664457 -4.505998 24.51963 0.3125 0.93750006
0 0 -25 0.328125 0
9.383257 -22.653189 -4.8772583 0.3125 0.4375
3.6611655 -8.838837 23.096987 0.3125 0.875
8.83884 -21.338837 -9.567086 0.3125 0.375
5.315187 -12.832 20.78674 0.3125 0.81250006
7.954741 -19.204445 -13.8892565 0.3125 0.31249994
6.764954 -16.33204 17.67767 0.3125 0.75000006
6.764954 -16.33204 -17.67767 0.3125 0.25
7.954741 -19.204445 13.8892565 0.3125 0.68750006
4.5060015 -22.653189 -9.567086 0.28125 0.375
4.0552907 -20.38733 -13.8892565 0.28125 0.31249994
2.7096574 -13.622377 20.78674 0.28124997 0.81250006
3.4487436 -17.338003 17.67767 0.28125 0.75000006
3.4487436 -17.338003 -17.67767 0.28125 0.25
4.0552907 -20.38733 13.8892565 0.28125 0.68750006
2.7096574 -13.622377 -20.78674 0.28124997 0.1875
4.5060015 -22.653189 9.567086 0.28125 0.62500006
1.8664452 -9.383258 -23.096987 0.28125 0.125
4.7835407 -24.048496 4.8772583 0.28125 0.5625
0.95150566 -4.7835417 -24.51963 0.28125 0.06249994
4.8772507 -24.519629 0 0.28124994 0.5
0 0 25 0.296875 1
0.95150566 -4.7835417 24.51963 0.28125 0.93750006
0 0 -25 0.296875 0
4.7835407 -24.048496 -4.8772583 0.28125 0.4375
1.8664452 -9.383258 23.096987 0.28125 0.875
-1.3038524e-06 -9.567087 -23.096987 0.24999997 0.125
-1.8626463e-07 -4.8772564 -24.51963 0.25 0.06249994
-3.3527633e-06 -24.519632 4.8772583 0.24999997 0.5625
-8.195644e-06 -24.999992 0 0.24999997 0.5
0 0 25 0.265625 1
-1.8626463e-07 -4.8772564 24.51963 0.25 0.93750006
0 0 -25 0.265625 0
-3.3527633e-06 -24.519632 -4.8772583 0.24999997 0.4375
-1.3038524e-06 -9.567087 23.096987 0.24999997 0.875
7.450585e-07 -23.09699 -9.567086 0.25 0.375
-2.42144e-06 -13.889254 20.78674 0.24999997 0.81250006
-2.6077048e-06 -20.786741 -13.8892565 0.24999997 0.31249994
-3.7252926e-07 -17.677673 17.67767 0.25 0.75000006
-3.7252926e-07 -17.677673 -17.67767 0.25 0.25
-2.6077048e-06 -20.786741 13.8892565 0.24999997 0.68750006
-2.42144e-06 -13.889254 -20.78674 0.24999997 0.1875
7.450585e-07 -23.09699 9.567086 0.25 0.62500006
-2.7096622 -13.6223755 20.78674 0.21875 0.81250006
-3.448744 -17.338001 17.67767 0.21875 0.75000006
-4.0552955 -20.387327 -13.8892565 0.21875 0.31249994
-3.448744 -17.338001 -17.67767 0.21875 0.25
-4.0552955 -20.387327 13.8892565 0.21875 0.6875001
-2.7096622 -13.6223755 -20.78674 0.21875 0.1875
-4.5059996 -22.653187 9.567086 0.21875 0.62500006
-1.8664478 -9.383258 -23.096987 0.21875 0.125
-4.7835474 -24.048494 4.8772583 0.21875 0.5625
-0.95150596 -4.783541 -24.51963 0.21875 0.06249994
-4.877266 -24.519623 0 0.21874994 0.5
0 0 25 0.234375 1
-0.95150596 -4.783541 24.51963 0.21875 0.93750006
0 0 -25 0.234375 0
-4.7835474 -24.048494 -4.8772583 0.21875 0.4375
-1.8664478 -9.383258 23.096987 0.21875 0.875
-4.5059996 -22.653187 -9.567086 0.21875 0.375
-9.383263 -22.653185 4.8772583 0.18749997 0.5625
-9.567093 -23.096977 0 0.18749997 0.5
0 0 25 0.203125 1
-1.8664457 -4.505997 24.51963 0.1875 0.93750006
0 0 -25 0.203125 0
-1.8664457 -4.505997 -24.51963 0.1875 0.06249994
-9.383263 -22.653185 -4.8772583 0.18749997 0.4375
-3.6611676 -8.838836 23.096987 0.1875 0.875
-8.838837 -21.338837 -9.567086 0.1875 0.37499994
-5.315191 -12.831995 20.78674 0.18749997 0.81250006
-7.9547453 -19.204443 -13.8892565 0.1875 0.31249994
-6.764954 -16.332039 17.67767 0.1875 0.75000006
-6.764954 -16.332039 -17.67767 0.1875 0.25
-7.9547453 -19.204443 13.8892565 0.1875 0.6875001
-5.315191 -12.831995 -20.78674 0.18749997 0.1875
-8.838837 -21.338837 9.567086 0.1875 0.62500006
-3.6611676 -8.838836 -23.096987 0.1875 0.125
-11.548498 -17.28354 -13.8892565 0.15624997 0.31249994
-9.821192 -14.698447 -17.67767 0.15624997 0.25
-9.821192 -14.698447 17.67767 0.15624997 0.75000006
-11.548498 -17.28354 13.8892565 0.15624997 0.6875001
-7.7164593 -11.54849 -20.78674 0.15624997 0.18749994
-12.832002 -19.204445 9.567086 0.15625003 0.62500006
-5.315191 -7.9547415 -23.096987 0.15624997 0.125
-13.622385 -20.387327 4.8772583 0.15624997 0.5625
-2.709659 -4.05529 -24.51963 0.15625003 0.06249994
-13.889261 -20.786728 0 0.15624994 0.5
0 0 25 0.17187503 1
-2.709659 -4.05529 24.51963 0.15625003 0.93750006
0 0 -25 0.17187503 0
-13.622385 -20.387327 -4.8772583 0.15624997 0.4375
-5.315191 -7.9547415 23.096987 0.15624997 0.875
-12.832002 -19.204445 -9.567086 0.15625003 0.37499994
-7.7164593 -11.54849 20.78674 0.15624997 0.8125001
0 0 25 0.14062503 1
-3.4487417 -3.4487405 24.51963 0.125 0.93750006
0 0 -25 0.14062503 0
-3.4487417 -3.4487405 -24.51963 0.125 0.06249994
-17.677673 -17.677654 0 0.12499994 0.5
-17.338005 -17.337996 -4.8772583 0.12499997 0.4375
-6.764954 -6.7649508 23.096987 0.125 0.875
-16.33204 -16.332039 -9.567086 0.125 0.37499994
-9.821189 -9.821181 20.78674 0.12499997 0.8125001
-14.698449 -14.698441 -13.8892565 0.12499997 0.31249994
-12.500006 -12.500002 17.67767 0.125 0.75000006
-12.500006 -12.500002 -17.67767 0.125 0.25
-14.698449 -14.698441 13.8892565 0.12499997 0.6875001
-9.821189 -9.821181 -20.78674 0.12499997 0.18749994
-16.33204 -16.332039 9.567086 0.125 0.62500006
-6.764954 -6.7649508 -23.096987 0.125 0.125
-17.338005 -17.337996 4.8772583 0.12499997 0.5625
-14.69845 -9.821188 17.67767 0.09375 0.75000006
-17.283546 -11.54849 13.8892565 0.09375 0.6875001
-14.69845 -9.821188 -17.67767 0.09375 0.24999994
-11.548495 -7.7164516 -20.78674 0.09374997 0.18749994
-19.204449 -12.832 9.567086 0.09375 0.6250001
-7.954744 -5.3151875 -23.096987 0.09375 0.125
-20.387335 -13.622373 4.8772583 0.09374997 0.5625
-4.055291 -2.709658 -24.51963 0.09375 0.06249994
-20.786741 -13.88924 0 0.09374997 0.5
0 0 25 0.109375 1
-4.055291 -2.709658 24.51963 0.09375 0.93750006
0 0 -25 0.109375 0
-20.387335 -13.622373 -4.8772583 0.09374997 0.4375
-7.954744 -5.3151875 23.096987 0.09375 0.875
-19.204449 -12.832 -9.567086 0.09375 0.37499994
-11.548495 -7.7164516 20.78674 0.09374997 0.8125001
-17.283546 -11.54849 -13.8892565 0.09375 0.31249994
-23.096985 -9.567071 0 0.06249994 0.5
-22.653193 -9.38325 -4.8772583 0.0625 0.4375
-4.505998 -1.8664446 24.51963 0.0625 0.93750006
-8.838837 -3.6611643 23.096987 0.0625 0.875
-21.338839 -8.838835 -9.567086 0.06250003 0.37499994
-12.831998 -5.3151827 20.78674 0.0625 0.8125001
-19.204447 -7.954736 -13.8892565 0.0625 0.31249988
-16.332043 -6.7649517 17.67767 0.06250003 0.75000006
-16.332043 -6.7649517 -17.67767 0.06250003 0.25
-19.204447 -7.954736 13.8892565 0.0625 0.6875001
-12.831998 -5.3151827 -20.78674 0.0625 0.18749994
-21.338839 -8.838835 9.567086 0.06250003 0.6250001
-8.838837 -3.6611643 -23.096987 0.0625 0.125
-22.653193 -9.38325 4.8772583 0.0625 0.5625
-4.505998 -1.8664446 -24.51963 0.0625 0.06249994
0 0 25 0.078125 1
0 0 -25 0.078125 0
-17.338005 -3.4487422 -17.67767 0.03125 0.25
-13.6223755 -2.7096548 -20.78674 0.03124997 0.18749994
-20.387331 -4.0552874 13.8892565 0.03124997 0.6875001
-22.65319 -4.505999 9.567086 0.03125 0.62500006
-9.383259 -1.8664446 -23.096987 0.03124997 0.125
-24.0485 -4.7835364 4.8772583 0.03124997 0.5625
-4.7835417 -0.9515049 -24.51963 0.03125 0.06249994
-24.519625 -4.8772445 0 0.03124994 0.5
0 0 25 0.04687497 1
-4.7835417 -0.9515049 24.51963 0.03125 0.93750006
0 0 -25 0.04687497 0
-24.0485 -4.7835364 -4.8772583 0.03124997 0.4375
-9.383259 -1.8664446 23.096987 0.03124997 0.87500006
-22.65319 -4.505999 -9.567086 0.03125 0.37499994
-13.6223755 -2.7096548 20.78674 0.03124997 0.8125001
-20.387331 -4.0552874 -13.8892565 0.03124997 0.31249994
-17.338005 -3.4487422 17.67767 0.03125 0.75000006
-24.519636 6.7055253e-06 -4.8772583 0 0.4375
-23.096992 3.7252917e-07 -9.567086 0 0.37499994
-9.567087 1.3038521e-06 23.096987 0 0.87500006
-13.889253 3.7252917e-06 20.78674 0 0.8125001
-20.786741 4.0978207e-06 -13.8892565 0 0.31249994
-17.677675 7.4505834e-07 17.67767 0 0.75000006
-17.677675 7.4505834e-07 -17.67767 0 0.24999994
-20.786741 4.0978207e-06 13.8892565 0 0.6875001
-13.889253 3.7252917e-06 -20.78674 0 0.18749994
-23.096992 3.7252917e-07 9.567086 0 0.6250001
-9.567087 1.3038521e-06 -23.096987 0 0.125
-24.519636 6.7055253e-06 4.8772583 0 0.5625
-4.8772564 4.6566146e-07 -24.51963 0 0.06249994
-24.99999 1.1175875e-05 0 0 0.5
0 0 25 0.015625 1
-4.8772564 4.6566146e-07 24.51963 0 0.93750006
0 0 -25 0.015625 0
-9.567087 1.3038521e-06 -23.096987 1 0.125
-13.889253 3.7252917e-06 -20.78674 1 0.18749994
-13.622375 2.709662 -20.78674 0.96874994 0.18749994
-9.383258 1.866447 -23.096987 0.96874994 0.125
-24.519636 6.7055253e-06 4.8772583 1 0.5625
-23.096992 3.7252917e-07 9.567086 1 0.6250001
-22.65319 4.505999 9.567086 0.96875 0.6250001
-24.048494 4.7835493 4.8772583 0.96874994 0.5625
-4.8772564 4.6566146e-07 -24.51963 1 0.06249994
-4.783541 0.95150584 -24.51963 0.96875 0.06249994
-24.99999 1.1175875e-05 0 1 0.5
-24.51962 4.8772664 0 0.9687499 0.5
-4.8772564 4.6566146e-07 24.51963 1 0.93750006
0 0 25 0.984375 1
-4.783541 0.95150584 24.51963 0.96875 0.93750006
0 0 -25 0.984375 0
-24.519636 6.7055253e-06 -4.8772583 1 0.4375
-24.048494 4.7835493 -4.8772583 0.96874994 0.4375
-9.567087 1.3038521e-06 23.096987 1 0.87500006
-9.383258 1.866447 23.096987 0.96874994 0.87500006
-23.096992 3.7252917e-07 -9.567086 1 0.37499994
-22.65319 4.505999 -9.567086 0.96875 0.37499994
-13.889253 3.7252917e-06 20.78674 1 0.8125001
-13.622375 2.709662 20.78674 0.96874994 0.8125001
-20.786741 4.0978207e-06 -13.8892565 1 0.31249994
-20.38733 4.0552955 -13.8892565 0.96874994 0.31249988
-17.677675 7.4505834e-07 17.67767 1 0.75000006
-17.338003 3.4487436 17.67767 0.96875 0.75000006
-17.677675 7.4505834e-07 -17.67767 1 0.24999994
-17.338003 3.4487436 -17.67767 0.96875 0.24999994
-20.786741 4.0978207e-06 13.8892565 1 0.6875001
-20.38733 4.0552955 13.8892565 0.96874994 0.6875001
-8.838836 3.661166 23.096987 0.9375 0.87500006
-12.831994 5.3151894 20.78674 0.93749994 0.8125001
-21.338839 8.838834 -9.567086 0.9375 0.37499994
-19.204441 7.9547434 -13.8892565 0.93749994 0.31249988
-16.332043 6.7649527 17.67767 0.9375 0.75000006
-16.332043 6.7649527 -17.67767 0.9375 0.24999994
-19.204441 7.9547434 13.8892565 0.93749994 0.6875001
-12.831994 5.3151894 -20.78674 0.93749994 0.18749994
-21.338839 8.838834 9.567086 0.9375 0.6250001
-8.838836 3.661166 -23.096987 0.9375 0.125
-22.653185 9.383262 4.8772583 0.93749994 0.56250006
-4.505997 1.8664453 -24.51963 0.9375 0.06249994
-23.096975 9.567091 0 0.9374999 0.5
0 0 25 0.953125 1
-4.505997 1.8664453 24.51963 0.9375 0.93750006
0 0 -25 0.953125 0
-22.653185 9.383262 -4.8772583 0.93749994 0.4375
-19.204447 12.831998 9.567086 0.90625 0.6250001
-20.387327 13.622381 4.8772583 0.90624994 0.56250006
-7.954741 5.3151884 -23.096987 0.90625 0.125
-4.05529 2.7096584 -24.51963 0.90625 0.06249994
-20.786724 13.8892565 0 0.90624994 0.5
0 0 25 0.921875 1
-4.05529 2.7096584 24.51963 0.90625 0.93750006
0 0 -25 0.921875 0
-20.387327 13.622381 -4.8772583 0.90624994 0.4375
-7.954741 5.3151884 23.096987 0.90625 0.87500006
-19.204447 12.831998 -9.567086 0.90625 0.37499994
-11.548488 7.716457 20.78674 0.90624994 0.8125001
-17.283539 11.548495 -13.8892565 0.90625 0.31249988
-14.698449 9.821189 17.67767 0.90625 0.75000006
-14.698449 9.821189 -17.67767 0.90625 0.24999994
-17.283539 11.548495 13.8892565 0.90625 0.6875001
-11.548488 7.716457 -20.78674 0.90624994 0.18749994
-16.332039 16.332035 -9.567086 0.875 0.37499994
-14.69844 14.698444 -13.8892565 0.87499994 0.31249988
-9.821179 9.821185 20.78674 0.8749999 0.8125001
-12.500003 12.500002 17.67767 0.875 0.75000006
-12.500003 12.500002 -17.67767 0.875 0.24999994
-14.69844 14.698444 13.8892565 0.87499994 0.6875001
-9.821179 9.821185 -20.78674 0.8749999 0.18749994
-16.332039 16.332035 9.567086 0.875 0.6250001
-6.764951 6.7649508 -23.096987 0.875 0.125
-17.337994 17.338 4.8772583 0.87499994 0.56250006
-3.4487407 3.4487405 -24.51963 0.875 0.06249994
-17.677652 17.677666 0 0.8749999 0.5
0 0 25 0.890625 1
-3.4487407 3.4487405 24.51963 0.875 0.93750006
0 0 -25 0.890625 0
-17.337994 17.338 -4.8772583 0.87499994 0.4375
-6.764951 6.7649508 23.096987 0.875 0.87500006
-5.3151875 7.9547405 -23.096987 0.84375 0.125
-2.709658 4.0552897 -24.51963 0.84375 0.06249994
-13.622373 20.387327 4.8772583 0.84374994 0.56250006
-13.889239 20.786732 0 0.8437499 0.5
0 0 25 0.859375 1
-2.709658 4.0552897 24.51963 0.84375 0.93750006
0 0 -25 0.859375 0
-13.622373 20.387327 -4.8772583 0.84374994 0.4375
-5.3151875 7.9547405 23.096987 0.84375 0.87500006
-12.832 19.204443 -9.567086 0.84375 0.37499994
-7.7164497 11.54849 20.78674 0.84374994 0.8125002
-11.548489 17.28354 -13.8892565 0.84374994 0.31249988
-9.821189 14.698447 17.67767 0.84375 0.75000006
-9.821189 14.698447 -17.67767 0.84375 0.24999994
-11.548489 17.28354 13.8892565 0.84374994 0.6875001
-7.7164497 11.54849 -20.78674 0.84374994 0.18749982
-12.832 19.204443 9.567086 0.84375 0.6250001
-5.315181 12.831992 20.78674 0.81249994 0.8125002
-6.7649517 16.332039 17.67767 0.8125 0.75000006
-7.954735 19.20444 -13.8892565 0.81249994 0.31249988
-6.7649517 16.332039 -17.67767 0.8125 0.24999994
-7.954735 19.20444 13.8892565 0.81249994 0.6875001
-5.315181 12.831992 -20.78674 0.81249994 0.18749982
-8.838835 21.338833 9.567086 0.8125 0.6250001
-3.6611643 8.838834 -23.096987 0.8125 0.125
-9.38325 22.653183 4.8772583 0.81249994 0.56250006
-1.8664446 4.5059958 -24.51963 0.8125 0.06249988
-9.56707 23.096973 0 0.81249994 0.5
0 0 25 0.828125 1
-1.8664446 4.5059958 24.51963 0.8125 0.9375001
0 0 -25 0.828125 0
-9.38325 22.653183 -4.8772583 0.81249994 0.4375
-3.6611643 8.838834 23.096987 0.8125 0.87500006
-8.838835 21.338833 -9.567086 0.8125 0.37499994
-4.783536 24.048489 4.8772583 0.78124994 0.56250006
-4.8772435 24.519613 0 0.7812499 0.5
0 0 25 0.796875 1
-0.951505 4.7835393 24.51963 0.78125 0.9375001
0 0 -25 0.796875 0
-0.951505 4.7835393 -24.51963 0.78125 0.06249988
-4.783536 24.048489 -4.8772583 0.78124994 0.4375
-1.8664443 9.383256 23.096987 0.78125 0.87500006
-4.505998 22.653183 -9.567086 0.78125 0.37499994
-2.7096527 13.622368 20.78674 0.78124994 0.8125002
-4.055286 20.387321 -13.8892565 0.78124994 0.31249988
-3.4487414 17.338001 17.67767 0.78125 0.75000006
-3.4487414 17.338001 -17.67767 0.78125 0.25
-4.055286 20.387321 13.8892565 0.78124994 0.6875001
-2.7096527 13.622368 -20.78674 0.78124994 0.18749982
-4.505998 22.653183 9.567086 0.78125 0.6250001
-1.8664443 9.383256 -23.096987 0.78125 0.125
0 0 25 0.765625 1
0 0 -25 0.765625 0
4 0 1 2 3
4 4 5 6 7
4 8 0 3 9
4 10 4 7 11
4 12 8 9 13
4 14 10 11 15
4 16 12 13 17
4 18 14 15 19
3 20 21 22
3 23 16 17
4 24 18 19 25
4 26 20 22 27
4 28 24 25 29
4 30 26 27 31
4 1 28 29 2
4 5 30 31 6
4 31 27 32 33
4 2 29 34 35
4 6 31 33 36
4 3 2 35 37
4 7 6 36 38
4 9 3 37 39
4 11 7 38 40
4 13 9 39 41
4 15 11 40 42
4 17 13 41 43
4 19 15 42 44
3 22 45 46
3 47 17 43
4 25 19 44 48
4 27 22 46 32
4 29 25 48 34
4 42 40 49 50
4 43 41 51 52
4 44 42 50 53
3 46 54 55
3 56 43 52
4 48 44 53 57
4 32 46 55 58
4 34 48 57 59
4 33 32 58 60
4 35 34 59 61
4 36 33 60 62
4 37 35 61 63
4 38 36 62 64
4 39 37 63 65
4 40 38 64 49
4 41 39 65 51
4 61 59 66 67
4 62 60 68 69
4 63 61 67 70
4 64 62 69 71
4 65 63 70 72
4 49 64 71 73
4 51 65 72 74
4 50 49 73 75
4 52 51 74 76
4 53 50 75 77
3 55 78 79
3 80 52 76
4 57 53 77 81
4 58 55 79 82
4 59 57 81 66
4 60 58 82 68
4 76 74 83 84
4 77 75 85 86
3 79 87 88
3 89 76 84
4 81 77 86 90
4 82 79 88 91
4 66 81 90 92
4 68 82 91 93
4 67 66 92 94
4 69 68 93 95
4 70 67 94 96
4 71 69 95 97
4 72 70 96 98
4 73 71 97 99
4 74 72 98 83
4 75 73 99 85
4 96 94 100 101
4 97 95 102 103
4 98 96 101 104
4 99 97 103 105
4 83 98 104 106
4 85 99 105 107
4 84 83 106 108
4 86 85 107 109
3 88 110 111
3 112 84 108
4 90 86 109 113
4 91 88 111 114
4 92 90 113 115
4 93 91 114 116
4 94 92 115 100
4 95 93 116 102
3 111 117 118
3 119 108 120
4 113 109 121 122
4 114 111 118 123
4 115 113 122 124
4 116 114 123 125
4 100 115 124 126
4 102 116 125 127
4 101 100 126 128
4 103 102 127 129
4 104 101 128 130
4 105 103 129 131
4 106 104 130 132
4 107 105 131 133
4 108 106 132 120
4 109 107 133 121
4 129 127 134 135
4 130 128 136 137
4 131 129 135 138
4 132 130 137 139
4 133 131 138 140
4 120 132 139 141
4 121 133 140 142
3 118 143 144
3 145 120 141
4 122 121 142 146
4 123 118 144 147
4 124 122 146 148
4 125 123 147 149
4 126 124 148 150
4 127 125 149 134
4 128 126 150 136
4 146 142 151 152
4 147 144 153 154
4 148 146 152 155
4 149 147 154 156
4 150 148 155 157
4 134 149 156 158
4 136 150 157 159
4 135 134 158 160
4 137 136 159 161
4 138 135 160 162
4 139 137 161 163
4 140 138 162 164
4 141 139 163 165
4 142 140 164 151
3 144 166 153
3 167 141 165
4 161 159 168 169
4 162 160 170 171
4 163 161 169 172
4 164 162 171 173
4 165 163 172 174
4 151 164 173 175
3 153 176 177
3 178 165 174
4 152 151 175 179
4 154 153 177 180
4 155 152 179 181
4 156 154 180 182
4 157 155 181 183
4 158 156 182 184
4 159 157 183 168
4 160 158 184 170
4 180 177 185 186
4 181 179 187 188
4 182 180 186 189
4 183 181 188 190
4 184 182 189 191
4 168 183 190 192
4 170 184 191 193
4 169 168 192 194
4 171 170 193 195
4 172 169 194 196
4 173 171 195 197
4 174 172 196 198
4 175 173 197 199
3 177 200 185
3 201 174 198
4 179 175 199 187
4 195 193 202 203
4 196 194 204 205
4 197 195 203 206
4 198 196 205 207
4 199 197 206 208
3 185 209 210
3 211 198 207
4 187 199 208 212
4 186 185 210 213
4 188 187 212 214
4 189 186 213 215
4 190 188 214 216
4 191 189 215 217
4 192 190 216 218
4 193 191 217 202
4 194 192 218 204
4 214 212 219 220
4 215 213 221 222
4 216 214 220 223
4 217 215 222 224
4 218 216 223 225
4 202 217 224 226
4 204 218 225 227
4 203 202 226 228
4 205 204 227 229
4 206 203 228 230
4 207 205 229 231
4 208 206 230 232
3 210 233 234
3 235 207 231
4 212 208 232 219
4 213 210 234 221
4 229 227 236 237
4 230 228 238 239
4 231 229 237 240
4 232 230 239 241
3 234 242 243
3 244 231 240
4 219 232 241 245
4 221 234 243 246
4 220 219 245 247
4 222 221 246 248
4 223 220 247 249
4 224 222 248 250
4 225 223 249 251
4 226 224 250 252
4 227 225 251 236
4 228 226 252 238
4 249 247 253 254
4 250 248 255 256
4 251 249 254 257
4 252 250 256 258
4 236 251 257 259
4 238 252 258 260
4 237 236 259 261
4 239 238 260 262
4 240 237 261 263
4 241 239 262 264
3 243 265 266
3 267 240 263
4 245 241 264 268
4 246 243 266 269
4 247 245 268 253
4 248 246 269 255
4 263 261 270 271
4 264 262 272 273
3 266 274 275
3 276 263 271
4 268 264 273 277
4 269 266 275 278
4 253 268 277 279
4 255 269 278 280
4 254 253 279 281
4 256 255 280 282
4 257 254 281 283
4 258 256 282 284
4 259 257 283 285
4 260 258 284 286
4 261 259 285 270
4 262 260 286 272
4 282 280 287 288
4 283 281 289 290
4 284 282 288 291
4 285 283 290 292
4 286 284 291 293
4 270 285 292 294
4 272 286 293 295
4 271 270 294 296
4 273 272 295 297
3 275 298 299
3 300 271 296
4 277 273 297 301
4 278 275 299 302
4 279 277 301 303
4 280 278 302 287
4 281 279 303 289
4 297 295 304 305
3 299 306 307
3 308 296 309
4 301 297 305 310
4 302 299 307 311
4 303 301 310 312
4 287 302 311 313
4 289 303 312 314
4 288 287 313 315
4 290 289 314 316
4 291 288 315 317
4 292 290 316 318
4 293 291 317 319
4 294 292 318 320
4 295 293 319 304
4 296 294 320 309
4 316 314 321 322
4 317 315 323 324
4 318 316 322 325
4 319 317 324 326
4 320 318 325 327
4 304 319 326 328
4 309 320 327 329
4 305 304 328 330
3 307 331 332
3 333 309 329
4 310 305 330 334
4 311 307 332 335
4 312 310 334 336
4 313 311 335 337
4 314 312 336 321
4 315 313 337 323
3 332 338 339
3 340 329 341
4 334 330 342 343
4 335 332 339 344
4 336 334 343 345
4 337 335 344 346
4 321 336 345 347
4 323 337 346 348
4 322 321 347 349
4 324 323 348 350
4 325 322 349 351
4 326 324 350 352
4 327 325 351 353
4 328 326 352 354
4 329 327 353 341
4 330 328 354 342
4 350 348 355 356
4 351 349 357 358
4 352 350 356 359
4 353 351 358 360
4 354 352 359 361
4 341 353 360 362
4 342 354 361 363
3 339 364 365
3 366 341 362
4 343 342 363 367
4 344 339 365 368
4 345 343 367 369
4 346 344 368 370
4 347 345 369 371
4 348 346 370 355
4 349 347 371 357
4 367 363 372 373
4 368 365 374 375
4 369 367 373 376
4 370 368 375 377
4 371 369 376 378
4 355 370 377 379
4 357 371 378 380
4 356 355 379 381
4 358 357 380 382
4 359 356 381 383
4 360 358 382 384
4 361 359 383 385
4 362 360 384 386
4 363 361 385 372
3 365 387 374
3 388 362 386
4 382 380 389 390
4 383 381 391 392
4 384 382 390 393
4 385 383 392 394
4 386 384 393 395
4 372 385 394 396
3 374 397 398
3 399 386 395
4 373 372 396 400
4 375 374 398 401
4 376 373 400 402
4 377 375 401 403
4 378 376 402 404
4 379 377 403 405
4 380 378 404 389
4 381 379 405 391
4 402 400 406 407
4 403 401 408 409
4 404 402 407 410
4 405 403 409 411
4 389 404 410 412
4 391 405 411 413
4 390 389 412 414
4 392 391 413 415
4 393 390 414 416
4 394 392 415 417
4 395 393 416 418
4 396 394 417 419
3 398 420 421
3 422 395 418
4 400 396 419 406
4 401 398 421 408
4 423 424 425 426
4 427 428 429 430
4 431 423 426 432
4 433 427 430 434
3 435 436 437
3 438 431 432
4 439 433 434 440
4 441 435 437 442
4 443 439 440 444
4 445 441 442 446
4 447 443 444 448
4 449 445 446 450
4 451 447 448 452
4 453 449 450 454
4 424 451 452 425
4 428 453 454 429
4 446 442 455 456
4 448 444 457 458
4 450 446 456 459
4 452 448 458 460
4 454 450 459 461
4 425 452 460 462
4 429 454 461 463
4 426 425 462 464
4 430 429 463 465
4 432 426 464 466
4 434 430 465 467
3 437 468 469
3 470 432 466
4 440 434 467 471
4 442 437 469 455
4 444 440 471 457
4 465 463 472 473
4 466 464 474 475
4 467 465 473 476
3 469 477 478
3 479 466 475
4 471 467 476 480
4 455 469 478 481
4 457 471 480 482
4 456 455 481 483
4 458 457 482 484
4 459 456 483 485
4 460 458 484 486
4 461 459 485 487
4 462 460 486 488
4 463 461 487 472
4 464 462 488 474
4 484 482 489 490
4 485 483 491 492
4 486 484 490 493
4 487 485 492 494
4 488 486 493 495
4 472 487 494 496
4 474 488 495 497
4 473 472 496 498
4 475 474 497 499
4 476 473 498 500
3 478 501 502
3 503 475 499
4 480 476 500 504
4 481 478 502 505
4 482 480 504 489
4 483 481 505 491
4 499 497 506 507
4 500 498 508 509
3 502 510 511
3 512 499 507
4 504 500 509 513
4 505 502 511 514
4 489 504 513 515
4 491 505 514 516
4 490 489 515 517
4 492 491 516 518
4 493 490 517 519
4 494 492 518 520
4 495 493 519 521
4 496 494 520 522
4 497 495 521 506
4 498 496 522 508
4 518 516 523 524
4 519 517 525 526
4 520 518 524 527
4 521 519 526 528
4 522 520 527 529
4 506 521 528 530
4 508 522 529 531
4 507 506 530 532
4 509 508 531 533
3 511 534 535
3 536 507 532
4 513 509 533 537
4 514 511 535 538
4 515 513 537 539
4 516 514 538 523
4 517 515 539 525
4 533 531 540 541
3 535 542 543
3 544 532 545
4 537 533 541 546
4 538 535 543 547
4 539 537 546 548
4 523 538 547 549
4 525 539 548 550
4 524 523 549 551
4 526 525 550 552
4 527 524 551 553
4 528 526 552 554
4 529 527 553 555
4 530 528 554 556
4 531 529 555 540
4 532 530 556 545
4 552 550 1 0
4 553 551 5 4
4 554 552 0 8
4 555 553 4 10
4 556 554 8 12
4 540 555 10 14
4 545 556 12 16
4 541 540 14 18
3 543 557 20
3 558 545 16
4 546 541 18 24
4 547 543 20 26
4 548 546 24 28
4 549 547 26 30
4 550 548 28 1
4 551 549 30 5
