ply
format ascii 1.0
comment Created in Blender version 4.4.0
element vertex 14
property float x
property float y
property float z
property float s
property float t
element face 6
property list uchar uint vertex_indices
end_header
-59.5 -60 -36.5 0.375 0
-59.5 -60 36.5 0.625 0
-59.5 60 36.5 0.625 0.25
-59.5 60 -36.5 0.375 0.25
59.5 60 36.5 0.625 0.5
59.5 60 -36.5 0.375 0.5
59.5 -60 36.5 0.625 0.75
59.5 -60 -36.5 0.375 0.75
-59.5 -60 36.5 0.625 1
-59.5 -60 -36.5 0.375 1
-59.5 60 -36.5 0.125 0.5
-59.5 -60 -36.5 0.125 0.75
-59.5 60 36.5 0.875 0.5
-59.5 -60 36.5 0.875 0.75
4 0 1 2 3
4 3 2 4 5
4 5 4 6 7
4 7 6 8 9
4 10 5 7 11
4 4 12 13 6
